<?xml version="1.0" standalone="no"?>
<!DOCTYPE svg PUBLIC "-//W3C//DTD SVG 20010904//EN"
 "http://www.w3.org/TR/2001/REC-SVG-20010904/DTD/svg10.dtd">
<svg version="1.0" xmlns="http://www.w3.org/2000/svg"
 width="700.000000pt" height="700.000000pt" viewBox="0 0 700.000000 700.000000"
 preserveAspectRatio="xMidYMid meet">
<metadata>
Created by potrace 1.11, written by Peter Selinger 2001-2013
</metadata>
<g transform="translate(0.000000,700.000000) scale(0.100000,-0.100000)"
fill="#000000" stroke="none">
<path d="M5463 6139 c-10 -13 -39 -178 -67 -379 -7 -50 -12 -79 -26 -160 -5
-30 -12 -73 -15 -95 -4 -22 -13 -83 -21 -135 -9 -52 -18 -108 -20 -125 -3 -16
-9 -55 -14 -85 -5 -30 -12 -73 -15 -95 -3 -22 -8 -56 -11 -75 -4 -19 -8 -44
-9 -55 -5 -32 -15 -99 -19 -120 -2 -11 -9 -54 -15 -95 -7 -41 -19 -118 -27
-170 -8 -52 -17 -108 -20 -125 -2 -16 -6 -41 -9 -55 -3 -14 -7 -43 -10 -65 -2
-22 -7 -51 -10 -65 -6 -28 -11 -68 -21 -150 -8 -76 -32 -187 -44 -211 -9 -16
-22 -19 -93 -20 -45 0 -100 -3 -122 -5 l-40 -4 -1 83 c-2 229 -49 311 -184
322 -32 3 -88 -20 -119 -48 -44 -41 -50 -71 -44 -223 l5 -141 -44 5 c-23 2
-84 5 -135 6 -99 1 -123 -8 -166 -65 -37 -51 -34 -161 6 -200 43 -41 83 -52
247 -64 47 -4 89 -10 93 -14 12 -12 27 -366 27 -631 -1 -280 -8 -370 -29 -370
-4 0 -8 -7 -9 -15 -1 -8 -3 -22 -4 -30 -1 -8 -6 -15 -11 -15 -5 0 -6 -7 -3
-16 3 -8 2 -13 -3 -10 -11 7 -25 -60 -16 -74 4 -6 1 -9 -7 -8 -8 2 -12 -4 -10
-14 2 -10 -2 -18 -8 -18 -5 0 -10 -12 -10 -26 0 -14 -4 -23 -9 -20 -5 4 -8 -5
-7 -19 2 -13 0 -22 -4 -20 -4 3 -11 -12 -15 -33 -4 -20 -12 -40 -18 -44 -9 -6
-8 -8 1 -8 10 0 10 -4 -2 -16 -9 -8 -16 -24 -16 -34 0 -10 -4 -21 -10 -25 -5
-3 -7 -12 -4 -19 3 -8 1 -17 -5 -21 -6 -3 -11 -17 -11 -31 0 -17 -4 -23 -12
-18 -6 4 -8 3 -4 -4 3 -6 2 -22 -4 -36 l-9 -26 -215 4 c-154 3 -218 1 -229 -7
-14 -11 -31 -95 -29 -141 1 -28 20 -36 92 -37 36 -1 79 -3 95 -4 17 -2 80 -6
140 -9 196 -11 249 -16 305 -28 30 -6 61 -11 69 -9 7 1 10 -2 7 -7 -3 -5 8 -8
24 -7 17 1 30 -2 30 -6 0 -4 12 -6 26 -3 16 3 23 1 19 -6 -5 -8 38 -15 48 -7
2 1 11 -4 20 -11 9 -8 21 -11 27 -7 5 3 10 1 10 -5 0 -6 5 -8 10 -5 13 8 12
-2 -13 -134 l-22 -114 -58 106 c-70 128 -95 148 -224 181 -75 19 -168 29 -270
29 -113 0 -162 -30 -256 -156 -27 -37 -51 -66 -52 -65 -1 2 -17 46 -35 98 -37
109 -123 276 -149 289 -44 24 -480 159 -509 158 -27 0 -41 -9 -70 -45 -21 -24
-47 -56 -60 -70 -28 -33 -27 -53 22 -322 20 -105 37 -213 34 -214 -2 -2 -18
-7 -37 -12 -31 -8 -36 -15 -48 -59 -15 -58 -28 -253 -19 -289 10 -42 70 -52
339 -61 87 -3 163 -8 169 -11 5 -4 69 -8 142 -9 122 -3 279 -12 343 -20 16 -1
57 -6 93 -10 36 -4 74 -9 84 -11 10 -2 76 6 145 18 245 40 534 30 769 -28 101
-25 130 -25 201 -5 72 22 287 31 364 17 25 -5 40 -2 54 11 21 18 113 235 113
263 -1 31 -20 42 -121 66 -113 27 -279 63 -319 70 -14 3 -47 9 -75 14 -27 6
-68 13 -90 15 -22 3 -51 7 -65 10 -50 10 -66 13 -139 20 l-73 7 6 47 c4 25 8
53 10 61 2 8 7 34 11 57 4 24 11 40 16 37 5 -3 9 0 9 6 0 6 9 5 23 -4 12 -8
35 -17 51 -20 16 -3 34 -10 40 -16 5 -5 22 -10 37 -10 25 0 74 -13 114 -30 11
-5 31 -10 45 -12 14 -2 31 -9 39 -16 8 -8 22 -11 32 -9 10 3 19 1 21 -5 2 -5
10 -10 18 -12 8 -1 40 -11 70 -21 30 -11 58 -18 63 -17 4 1 7 -3 7 -8 0 -6 9
-10 20 -10 11 0 20 -4 20 -10 0 -5 14 -10 30 -10 17 0 30 -4 30 -10 0 -5 7
-10 15 -10 16 0 29 -9 67 -45 11 -11 17 -13 13 -5 -6 10 -1 9 13 -4 12 -10 28
-16 37 -13 15 6 18 17 17 72 -3 178 -4 195 -15 188 -9 -5 -9 -3 0 8 11 15 12
93 0 105 -3 4 -2 14 2 23 14 25 14 33 -1 42 -7 5 -8 9 -3 9 12 0 13 65 2 76
-4 4 -1 14 6 22 9 13 9 14 0 8 -10 -5 -13 12 -14 73 0 45 -1 102 -1 129 0 26
-6 50 -12 54 -7 5 -6 8 4 8 13 0 13 2 1 9 -12 8 -12 12 -2 25 8 9 9 16 3 16
-6 0 -9 31 -8 79 0 44 -2 77 -5 75 -4 -2 -9 5 -12 16 -3 11 -2 18 2 16 12 -8
-1 129 -13 136 -7 5 -7 8 3 8 10 0 11 3 2 14 -12 15 1 32 17 22 14 -8 125 -20
188 -19 79 0 147 17 264 64 52 22 95 39 96 39 1 0 22 -18 46 -40 61 -56 120
-84 165 -77 50 9 105 55 122 105 15 41 15 42 -42 174 -64 149 -72 182 -77 288
-10 244 2 448 31 485 28 38 12 110 -37 158 -37 38 -192 111 -275 131 -165 40
-385 1 -525 -93 -25 -17 -47 -31 -48 -31 -2 0 -6 11 -8 25 -3 14 -1 25 5 25 7
0 7 4 -1 12 -15 15 -16 31 0 22 7 -5 8 -3 2 7 -4 8 -9 32 -11 54 -8 169 -15
323 -15 338 0 9 -3 15 -9 12 -5 -4 -9 -2 -9 4 0 5 6 12 13 14 9 4 8 8 -3 16
-12 8 -12 11 -1 11 11 0 11 3 1 15 -10 12 -10 15 0 15 10 0 10 3 0 15 -7 9
-10 18 -7 22 4 3 1 13 -6 21 -8 10 -8 13 0 9 8 -5 10 4 7 31 -7 56 -14 151
-14 207 -1 27 -6 56 -13 64 -9 12 -9 13 1 7 8 -5 12 0 12 17 0 14 7 30 15 37
8 7 15 20 15 29 0 10 14 39 30 65 17 26 27 52 24 58 -4 6 -3 8 3 5 6 -4 13 1
15 11 7 23 1 131 -8 162 -4 14 -7 41 -8 62 -1 20 -4 34 -8 31 -5 -2 -8 7 -8
21 0 18 -5 26 -17 26 -14 0 -15 2 -5 9 11 6 10 11 -3 25 -11 11 -12 16 -4 16
10 0 10 3 1 12 -7 7 -12 25 -12 40 0 16 -7 31 -15 34 -8 4 -13 9 -11 13 3 4
-9 34 -25 67 -37 73 -39 103 -15 244 3 14 7 48 11 75 3 28 12 86 20 130 18
109 29 201 30 255 0 39 -3 46 -29 58 -43 21 -100 26 -113 11z m0 -1154 c4 -8
2 -17 -3 -20 -6 -4 -10 3 -10 14 0 25 6 27 13 6z m2 -105 c0 -39 3 -70 6 -70
10 0 5 -34 -6 -42 -6 -5 -4 -8 5 -8 13 0 13 -1 0 -10 -10 -6 -11 -10 -3 -10 8
0 12 -16 10 -50 -1 -27 2 -52 8 -54 5 -3 2 -5 -7 -5 -16 -1 -23 -12 -19 -33 0
-5 -4 -8 -10 -8 -5 0 -7 -5 -4 -10 3 -6 -1 -13 -9 -16 -9 -3 -14 -9 -12 -13 2
-3 -4 -21 -14 -39 -21 -39 -35 -27 -26 24 4 19 9 51 12 71 2 20 6 48 9 62 2
14 7 46 10 71 3 25 11 72 17 105 5 33 10 70 10 83 0 12 6 22 12 22 8 0 12 -23
11 -70z m-550 -1370 c1 -8 -2 -17 -6 -20 -3 -3 -18 -31 -33 -62 -14 -32 -27
-58 -28 -58 -2 0 -4 35 -5 78 l-3 78 38 -1 c26 0 37 -4 37 -15z m1223 9 l34
-11 -8 -52 c-10 -67 -10 -261 -1 -356 14 -140 18 -185 22 -207 8 -50 -118
-113 -240 -121 -67 -4 -89 -1 -127 16 -81 35 -123 115 -134 251 -10 129 21
237 97 331 89 110 259 181 357 149z m-1198 -75 c0 -8 -19 -13 -24 -6 -3 5 1 9
9 9 8 0 15 -2 15 -3z m505 -823 c3 -5 2 -12 -3 -15 -5 -3 -9 1 -9 9 0 17 3 19
12 6z m-640 -540 c3 -5 2 -12 -3 -15 -5 -3 -9 1 -9 9 0 17 3 19 12 6z m-1448
-242 l168 -61 28 -57 c32 -66 33 -72 42 -190 l7 -91 -29 -1 c-15 0 -41 -3 -58
-5 -16 -2 -65 -9 -107 -14 -42 -6 -86 -13 -97 -15 -23 -4 -16 -25 -97 270 -25
94 -47 175 -47 180 -1 27 4 45 12 45 5 0 85 -27 178 -61z m2348 41 c3 -5 1
-10 -4 -10 -6 0 -11 5 -11 10 0 6 2 10 4 10 3 0 8 -4 11 -10z m-2551 -259 c37
-124 63 -228 59 -232 -11 -9 -83 -19 -81 -11 2 6 -9 93 -17 146 -2 11 -6 39
-10 61 -3 22 -8 54 -11 70 -3 17 -7 41 -8 55 -2 14 -7 46 -11 72 -6 39 0 77
10 66 2 -2 33 -104 69 -227z m2291 60 c3 -5 2 -12 -3 -15 -5 -3 -9 1 -9 9 0
17 3 19 12 6z m-1715 -218 c0 -7 -6 -13 -14 -13 -14 0 -26 51 -25 105 0 25 3
21 19 -25 11 -30 20 -61 20 -67z"/>
<path d="M444 4424 c-20 -7 -47 -23 -61 -36 -50 -46 -54 -69 -58 -382 -4 -271
-10 -494 -20 -711 -11 -237 -17 -350 -21 -393 -20 -230 -12 -304 37 -378 79
-116 278 -123 827 -29 12 2 30 6 40 9 9 3 30 7 45 10 15 3 54 12 85 21 199 56
262 106 262 205 0 86 -62 159 -143 167 -25 2 -72 -4 -117 -17 -82 -23 -350
-88 -390 -94 -67 -12 -182 -26 -247 -31 -71 -6 -72 -6 -68 17 2 13 6 61 10
108 3 47 8 114 10 150 17 246 29 617 29 967 1 310 0 322 -20 349 -48 65 -129
93 -200 68z"/>
<path d="M3424 4250 c-43 -10 -90 -47 -109 -87 -16 -34 -19 -98 -10 -247 l3
-69 -118 7 c-97 5 -127 3 -159 -10 -81 -32 -119 -136 -81 -221 31 -69 65 -82
263 -98 46 -4 89 -10 95 -14 14 -8 25 -275 26 -647 l1 -300 25 -32 c72 -90
206 -90 272 -1 43 57 49 120 43 426 -4 159 -8 317 -10 353 -3 82 -7 192 -6
206 1 7 48 11 138 13 148 3 186 12 225 56 62 71 49 191 -27 241 -35 23 -82 29
-222 29 l-123 0 0 89 c0 100 -23 207 -52 246 -37 51 -108 75 -174 60z"/>
<path d="M2220 3808 c-104 -11 -174 -33 -252 -79 -169 -99 -294 -292 -326
-499 -12 -82 -7 -226 12 -305 47 -197 189 -361 371 -426 77 -28 254 -35 335
-13 225 59 386 247 446 519 3 17 7 90 9 163 2 105 -1 149 -16 207 -64 250
-217 407 -419 432 -75 9 -87 9 -160 1z m156 -343 c53 -34 77 -73 100 -160 18
-65 18 -236 0 -302 -34 -128 -152 -216 -276 -208 -147 11 -235 137 -223 321
14 220 142 374 308 370 42 -1 71 -8 91 -21z"/>
</g>
</svg>
